<svg width="12" height="15" viewBox="0 0 12 15" fill="none" xmlns="http://www.w3.org/2000/svg">
<path d="M3.62143 0.518262C3.76607 0.200625 4.06339 0 4.3875 0H7.6125C7.93661 0 8.23393 0.200625 8.37857 0.518262L8.57143 0.9375H11.1429C11.617 0.9375 12 1.35732 12 1.875C12 2.39268 11.617 2.8125 11.1429 2.8125H0.857143C0.383839 2.8125 0 2.39268 0 1.875C0 1.35732 0.383839 0.9375 0.857143 0.9375H3.42857L3.62143 0.518262ZM10.575 13.6553C10.5321 14.4229 9.97232 15 9.29196 15H2.70804C2.02902 15 1.46705 14.4229 1.42473 13.6553L0.833036 3.75H11.1429L10.575 13.6553Z" fill="#C0C0C0" fill-opacity="0.8"/>
</svg>
